<?xml version="1.0" encoding="utf-8"?>
<!-- Generated by Mocodo 4.2.8 -->
<svg width="575" height="245" viewBox="0 0 575 245" xmlns="http://www.w3.org/2000/svg">
<rect x="0" y="0" width="575" height="245" fill="#f7f7f7" stroke="none" stroke-width="0"/>

<!-- Association IS -->
<g class="page_0_38009643 diagram_page" visibility="visible">
	<line x1="55" y1="68" x2="167" y2="68" stroke="#7fbc41" stroke-width="2"/>
	<line x1="167" y1="194" x2="167" y2="68" stroke="#7fbc41" stroke-width="2"/>
	<g>
		<path d="M167 43 a14 14 90 0 1 14 14 V68 h-28 V57 a14 14 90 0 1 14 -14" fill="#b8e186" stroke="#b8e186" stroke-width="0"/>
		<path d="M181 68 v11 a14 14 90 0 1 -14 14 H167 a14 14 90 0 1 -14 -14 V68 H28" fill="#e6f5d0" stroke="#e6f5d0" stroke-width="0"/>
		<rect x="153" y="43" width="28" height="50" fill="none" rx="14" stroke="#7fbc41" stroke-width="2"/>
		<line x1="153" y1="68" x2="181" y2="68" stroke="#7fbc41" stroke-width="1"/>
		<text x="160" y="60.75" fill="#000000" font-family="Verdana" font-size="12">IS</text>
	</g>
	<text x="96" y="85" fill="#c51b7d" font-family="Verdana" font-size="12">1,1</text>
	<text x="141" y="152" fill="#c51b7d" font-family="Verdana" font-size="12">1,1</text>
</g>

<!-- Association PARTICIPATE -->
<g class="page_0_38009643 diagram_page" visibility="visible">
	<line x1="395" y1="68" x2="263" y2="68" stroke="#7fbc41" stroke-width="2"/>
	<line x1="167" y1="194" x2="263" y2="68" stroke="#7fbc41" stroke-width="2"/>
	<g>
		<path d="M299 34 a14 14 90 0 1 14 14 V59 h-100 V48 a14 14 90 0 1 14 -14" fill="#b8e186" stroke="#b8e186" stroke-width="0"/>
		<path d="M313 59 v29 a14 14 90 0 1 -14 14 H227 a14 14 90 0 1 -14 -14 V59 H100" fill="#e6f5d0" stroke="#e6f5d0" stroke-width="0"/>
		<rect x="213" y="34" width="100" height="68" fill="none" rx="14" stroke="#7fbc41" stroke-width="2"/>
		<line x1="213" y1="59" x2="313" y2="59" stroke="#7fbc41" stroke-width="1"/>
		<text x="223" y="51.75" fill="#000000" font-family="Verdana" font-size="12">PARTICIPATE</text>
		<text x="220" y="76.8" fill="#000000" font-family="Verdana" font-size="12">order_of_turn</text>
		<text x="220" y="93.8" fill="#000000" font-family="Verdana" font-size="12">alias</text>
	</g>
	<text x="318" y="85" fill="#c51b7d" font-family="Verdana" font-size="12">1,N</text>
	<text x="171.64" y="152" fill="#c51b7d" font-family="Verdana" font-size="12">1,N</text>
</g>

<!-- Association FRIENDSHIP -->
<g class="page_0_38009643 diagram_page" visibility="visible">
	<path d="M167 194 C137.67 227.33 100.33 227.33 55 194" fill="none" stroke="#7fbc41" stroke-width="2"/>
	<path d="M167 194 C137.67 160.67 100.33 160.67 55 194" fill="none" stroke="#7fbc41" stroke-width="2"/>
	<g>
		<path d="M87 169 a14 14 90 0 1 14 14 V194 h-92 V183 a14 14 90 0 1 14 -14" fill="#b8e186" stroke="#b8e186" stroke-width="0"/>
		<path d="M101 194 v11 a14 14 90 0 1 -14 14 H23 a14 14 90 0 1 -14 -14 V194 H92" fill="#e6f5d0" stroke="#e6f5d0" stroke-width="0"/>
		<rect x="9" y="169" width="92" height="50" fill="none" rx="14" stroke="#7fbc41" stroke-width="2"/>
		<line x1="9" y1="194" x2="101" y2="194" stroke="#7fbc41" stroke-width="1"/>
		<text x="17" y="186.75" fill="#000000" font-family="Verdana" font-size="12">FRIENDSHIP</text>
	</g>
	<text x="106" y="209" fill="#c51b7d" font-family="Verdana" font-size="12" onmouseover="show_38009643(evt,'friend')" onmouseout="hide_38009643(evt)" style="cursor: pointer;">0,N</text>
	<text x="106" y="188" fill="#c51b7d" font-family="Verdana" font-size="12" onmouseover="show_38009643(evt,'friend_of')" onmouseout="hide_38009643(evt)" style="cursor: pointer;">0,N</text>
</g>

<!-- Association PLAY -->
<g class="page_0_38009643 diagram_page" visibility="visible">
	<line x1="167" y1="194" x2="263" y2="194" stroke="#7fbc41" stroke-width="2"/>
	<line x1="395" y1="194" x2="263" y2="194" stroke="#7fbc41" stroke-width="2"/>
	<g>
		<path d="M272 169 a14 14 90 0 1 14 14 V194 h-46 V183 a14 14 90 0 1 14 -14" fill="#b8e186" stroke="#b8e186" stroke-width="0"/>
		<path d="M286 194 v11 a14 14 90 0 1 -14 14 H254 a14 14 90 0 1 -14 -14 V194 H46" fill="#e6f5d0" stroke="#e6f5d0" stroke-width="0"/>
		<rect x="240" y="169" width="46" height="50" fill="none" rx="14" stroke="#7fbc41" stroke-width="2"/>
		<line x1="240" y1="194" x2="286" y2="194" stroke="#7fbc41" stroke-width="1"/>
		<text x="248" y="186.75" fill="#000000" font-family="Verdana" font-size="12">PLAY</text>
	</g>
	<text x="206" y="211" fill="#c51b7d" font-family="Verdana" font-size="12">0,N</text>
	<text x="333" y="211" fill="#c51b7d" font-family="Verdana" font-size="12">1,N</text>
</g>

<!-- Association COMPOSED -->
<g class="page_0_38009643 diagram_page" visibility="visible">
	<line x1="395" y1="68" x2="514" y2="194" stroke="#7fbc41" stroke-width="2"/>
	<line x1="395" y1="194" x2="514" y2="194" stroke="#7fbc41" stroke-width="2"/>
	<g>
		<path d="M552 169 a14 14 90 0 1 14 14 V194 h-104 V183 a14 14 90 0 1 14 -14" fill="#b8e186" stroke="#b8e186" stroke-width="0"/>
		<path d="M566 194 v11 a14 14 90 0 1 -14 14 H476 a14 14 90 0 1 -14 -14 V194 H104" fill="#e6f5d0" stroke="#e6f5d0" stroke-width="0"/>
		<rect x="462" y="169" width="104" height="50" fill="none" rx="14" stroke="#7fbc41" stroke-width="2"/>
		<line x1="462" y1="194" x2="566" y2="194" stroke="#7fbc41" stroke-width="1"/>
		<text x="479" y="186.75" fill="#000000" font-family="Verdana" font-size="12">COMPOSED</text>
		<text x="469" y="211.8" fill="#000000" font-family="Verdana" font-size="12">game_number</text>
	</g>
	<text x="450" y="119.73" fill="#c51b7d" font-family="Verdana" font-size="12">1,N</text>
	<text x="435" y="211" fill="#c51b7d" font-family="Verdana" font-size="12">1,N</text>
</g>

<!-- Entity USER -->
<g class="page_0_38009643 diagram_page" visibility="visible">
	<g>
		<rect x="19" y="17" width="72" height="25" fill="#f1b6da" stroke="none" stroke-width="0" opacity="1"/>
		<rect x="19" y="42" width="72" height="77" fill="#fde0ef" stroke="none" stroke-width="0" opacity="1"/>
		<rect x="19" y="17" width="72" height="102" fill="none" stroke="#de77ae" stroke-width="2" opacity="1"/>
		<line x1="19" y1="42" x2="91" y2="42" stroke="#de77ae" stroke-width="1"/>
	</g>
	<text x="38" y="34.75" fill="#000000" font-family="Verdana" font-size="12">USER</text>
	<text x="24" y="59.8" fill="#000000" font-family="Verdana" font-size="12">id_user</text>
	<line x1="24" y1="62" x2="70" y2="62" stroke="#000000" stroke-width="1"/>
	<text x="24" y="76.8" fill="#000000" font-family="Verdana" font-size="12">username</text>
	<text x="24" y="93.8" fill="#000000" font-family="Verdana" font-size="12">email</text>
	<text x="24" y="110.8" fill="#000000" font-family="Verdana" font-size="12">password</text>
</g>

<!-- Entity TOURNAMENT -->
<g class="page_0_38009643 diagram_page" visibility="visible">
	<g>
		<rect x="345" y="9" width="100" height="25" fill="#f1b6da" stroke="none" stroke-width="0" opacity="1"/>
		<rect x="345" y="34" width="100" height="93" fill="#fde0ef" stroke="none" stroke-width="0" opacity="1"/>
		<rect x="345" y="9" width="100" height="118" fill="none" stroke="#de77ae" stroke-width="2" opacity="1"/>
		<line x1="345" y1="34" x2="445" y2="34" stroke="#de77ae" stroke-width="1"/>
	</g>
	<text x="352" y="26.75" fill="#000000" font-family="Verdana" font-size="12">TOURNAMENT</text>
	<text x="350" y="51.8" fill="#000000" font-family="Verdana" font-size="12">id_tournament</text>
	<line x1="350" y1="54" x2="440" y2="54" stroke="#000000" stroke-width="1"/>
	<text x="350" y="68.8" fill="#000000" font-family="Verdana" font-size="12">name</text>
	<text x="350" y="85.8" fill="#000000" font-family="Verdana" font-size="12">is_started</text>
	<text x="350" y="102.8" fill="#000000" font-family="Verdana" font-size="12">start_date</text>
	<text x="350" y="119.8" fill="#000000" font-family="Verdana" font-size="12">end_date</text>
</g>

<!-- Entity PLAYER -->
<g class="page_0_38009643 diagram_page" visibility="visible">
	<g>
		<rect x="133" y="160" width="68" height="25" fill="#f1b6da" stroke="none" stroke-width="0" opacity="1"/>
		<rect x="133" y="185" width="68" height="43" fill="#fde0ef" stroke="none" stroke-width="0" opacity="1"/>
		<rect x="133" y="160" width="68" height="68" fill="none" stroke="#de77ae" stroke-width="2" opacity="1"/>
		<line x1="133" y1="185" x2="201" y2="185" stroke="#de77ae" stroke-width="1"/>
	</g>
	<text x="144" y="177.75" fill="#000000" font-family="Verdana" font-size="12">PLAYER</text>
	<text x="138" y="202.8" fill="#000000" font-family="Verdana" font-size="12">id_player</text>
	<line x1="138" y1="205" x2="195" y2="205" stroke="#000000" stroke-width="1"/>
	<text x="138" y="219.8" fill="#000000" font-family="Verdana" font-size="12">avatar</text>
</g>

<!-- Entity GAME -->
<g class="page_0_38009643 diagram_page" visibility="visible">
	<g>
		<rect x="360" y="152" width="70" height="25" fill="#f1b6da" stroke="none" stroke-width="0" opacity="1"/>
		<rect x="360" y="177" width="70" height="59" fill="#fde0ef" stroke="none" stroke-width="0" opacity="1"/>
		<rect x="360" y="152" width="70" height="84" fill="none" stroke="#de77ae" stroke-width="2" opacity="1"/>
		<line x1="360" y1="177" x2="430" y2="177" stroke="#de77ae" stroke-width="1"/>
	</g>
	<text x="377" y="169.75" fill="#000000" font-family="Verdana" font-size="12">GAME</text>
	<text x="365" y="194.8" fill="#000000" font-family="Verdana" font-size="12">id_game</text>
	<line x1="365" y1="197" x2="418" y2="197" stroke="#000000" stroke-width="1"/>
	<text x="365" y="211.8" fill="#000000" font-family="Verdana" font-size="12">date</text>
	<text x="365" y="228.8" fill="#000000" font-family="Verdana" font-size="12">winner_id</text>
</g>

<!-- Notes -->
<script type="text/ecmascript">
<![CDATA[
	function show_38009643(evt, text) {
		var pos = (evt.target.getAttribute("y") < 200) ? "bottom" : "top";
		var note = document.getElementById(pos + "_note_38009643");
		note.textContent = text;
		note.setAttributeNS(null, "visibility", "visible");
		document.getElementById(pos + "_overlay_38009643").setAttributeNS(null, "visibility", "visible");
	}
	function hide_38009643(evt) {
		document.getElementById("top_note_38009643").setAttributeNS(null, "visibility", "hidden");
		document.getElementById("top_overlay_38009643").setAttributeNS(null, "visibility", "hidden");
		document.getElementById("bottom_note_38009643").setAttributeNS(null, "visibility", "hidden");
		document.getElementById("bottom_overlay_38009643").setAttributeNS(null, "visibility", "hidden");
	}
]]>
</script>
<rect id="top_overlay_38009643" x="0" y="0" width="100%" height="40" fill="#4d9221" stroke-width="0" opacity="0.9" visibility="hidden"/>
<text id="top_note_38009643" text-anchor="middle" x="287" y="24" fill="#f7f7f7" font-family="Verdana" font-size="14" visibility="hidden"></text>
<rect id="bottom_overlay_38009643" x="0" y="205" width="100%" height="40" fill="#4d9221" stroke-width="0" opacity="0.9" visibility="hidden"/>
<text id="bottom_note_38009643" text-anchor="middle" x="287" y="229" fill="#f7f7f7" font-family="Verdana" font-size="14" visibility="hidden"></text>
</svg>