<?xml version="1.0" encoding="utf-8"?>
<!-- Generated by Mocodo 4.2.8 -->
<svg width="494" height="289" viewBox="0 0 494 289" xmlns="http://www.w3.org/2000/svg">
<rect x="0" y="0" width="494" height="289" fill="#f7f7f7" stroke="none" stroke-width="0"/>

<!-- Association PARTICIPATE -->
<g class="page_0_226c878e diagram_page" visibility="visible">
	<line x1="56" y1="85" x2="185" y2="85" stroke="#de77ae" stroke-width="2"/>
	<line x1="317" y1="85" x2="185" y2="85" stroke="#de77ae" stroke-width="2"/>
	<g>
		<path d="M221 51 a14 14 90 0 1 14 14 V76 h-100 V65 a14 14 90 0 1 14 -14" fill="#f1b6da" stroke="#f1b6da" stroke-width="0"/>
		<path d="M235 76 v29 a14 14 90 0 1 -14 14 H149 a14 14 90 0 1 -14 -14 V76 H100" fill="#fde0ef" stroke="#fde0ef" stroke-width="0"/>
		<rect x="135" y="51" width="100" height="68" fill="none" rx="14" stroke="#de77ae" stroke-width="2"/>
		<line x1="135" y1="76" x2="235" y2="76" stroke="#de77ae" stroke-width="1"/>
		<text x="145" y="68.75" fill="#000000" font-family="Verdana" font-size="12">PARTICIPATE</text>
		<text x="142" y="93.8" fill="#000000" font-family="Verdana" font-size="12">order_of_turn</text>
		<text x="142" y="110.8" fill="#000000" font-family="Verdana" font-size="12">alias</text>
	</g>
	<text x="108" y="77" fill="#4d9221" font-family="Verdana" font-size="12">1,N</text>
	<text x="240" y="102" fill="#4d9221" font-family="Verdana" font-size="12">1,N</text>
</g>

<!-- Association FRIENDSHIP -->
<g class="page_0_226c878e diagram_page" visibility="visible">
	<path d="M56 85 C98.67 155 98.67 203 56 229" fill="none" stroke="#de77ae" stroke-width="2"/>
	<path d="M56 85 C13.33 155 13.33 203 56 229" fill="none" stroke="#de77ae" stroke-width="2"/>
	<g>
		<path d="M88 204 a14 14 90 0 1 14 14 V229 h-92 V218 a14 14 90 0 1 14 -14" fill="#f1b6da" stroke="#f1b6da" stroke-width="0"/>
		<path d="M102 229 v11 a14 14 90 0 1 -14 14 H24 a14 14 90 0 1 -14 -14 V229 H92" fill="#fde0ef" stroke="#fde0ef" stroke-width="0"/>
		<rect x="10" y="204" width="92" height="50" fill="none" rx="14" stroke="#de77ae" stroke-width="2"/>
		<line x1="10" y1="229" x2="102" y2="229" stroke="#de77ae" stroke-width="1"/>
		<text x="18" y="221.75" fill="#000000" font-family="Verdana" font-size="12">FRIENDSHIP</text>
	</g>
	<text x="60" y="178" fill="#4d9221" font-family="Verdana" font-size="12" onmouseover="show_226c878e(evt,'friend')" onmouseout="hide_226c878e(evt)" style="cursor: pointer;">0,N</text>
	<text x="30" y="178" fill="#4d9221" font-family="Verdana" font-size="12" onmouseover="show_226c878e(evt,'friend_of')" onmouseout="hide_226c878e(evt)" style="cursor: pointer;">0,N</text>
</g>

<!-- Association PLAY -->
<g class="page_0_226c878e diagram_page" visibility="visible">
	<path d="M56 85 C127.18 103.73 170.18 151.73 185 229" fill="none" stroke="#de77ae" stroke-width="2"/>
	<line x1="317" y1="229" x2="185" y2="229" stroke="#de77ae" stroke-width="2"/>
	<g>
		<path d="M194 204 a14 14 90 0 1 14 14 V229 h-46 V218 a14 14 90 0 1 14 -14" fill="#f1b6da" stroke="#f1b6da" stroke-width="0"/>
		<path d="M208 229 v11 a14 14 90 0 1 -14 14 H176 a14 14 90 0 1 -14 -14 V229 H46" fill="#fde0ef" stroke="#fde0ef" stroke-width="0"/>
		<rect x="162" y="204" width="46" height="50" fill="none" rx="14" stroke="#de77ae" stroke-width="2"/>
		<line x1="162" y1="229" x2="208" y2="229" stroke="#de77ae" stroke-width="1"/>
		<text x="170" y="221.75" fill="#000000" font-family="Verdana" font-size="12">PLAY</text>
	</g>
	<text x="108" y="138.48" fill="#4d9221" font-family="Verdana" font-size="12">0,N</text>
	<text x="259" y="246" fill="#4d9221" font-family="Verdana" font-size="12">1,1</text>
</g>

<!-- Association COMPOSED -->
<g class="page_0_226c878e diagram_page" visibility="visible">
	<line x1="317" y1="85" x2="433" y2="229" stroke="#de77ae" stroke-width="2"/>
	<line x1="317" y1="229" x2="433" y2="229" stroke="#de77ae" stroke-width="2"/>
	<g>
		<path d="M471 204 a14 14 90 0 1 14 14 V229 h-104 V218 a14 14 90 0 1 14 -14" fill="#f1b6da" stroke="#f1b6da" stroke-width="0"/>
		<path d="M485 229 v11 a14 14 90 0 1 -14 14 H395 a14 14 90 0 1 -14 -14 V229 H104" fill="#fde0ef" stroke="#fde0ef" stroke-width="0"/>
		<rect x="381" y="204" width="104" height="50" fill="none" rx="14" stroke="#de77ae" stroke-width="2"/>
		<line x1="381" y1="229" x2="485" y2="229" stroke="#de77ae" stroke-width="1"/>
		<text x="398" y="221.75" fill="#000000" font-family="Verdana" font-size="12">COMPOSED</text>
		<text x="388" y="246.8" fill="#000000" font-family="Verdana" font-size="12">game_number</text>
	</g>
	<text x="372" y="145.07" fill="#4d9221" font-family="Verdana" font-size="12">1,N</text>
	<text x="354" y="246" fill="#4d9221" font-family="Verdana" font-size="12">1,N</text>
</g>

<!-- Entity USER -->
<g class="page_0_226c878e diagram_page" visibility="visible">
	<g>
		<rect x="9" y="9" width="94" height="25" fill="#b8e186" stroke="none" stroke-width="0" opacity="1"/>
		<rect x="9" y="34" width="94" height="127" fill="#e6f5d0" stroke="none" stroke-width="0" opacity="1"/>
		<rect x="9" y="9" width="94" height="152" fill="none" stroke="#7fbc41" stroke-width="2" opacity="1"/>
		<line x1="9" y1="34" x2="103" y2="34" stroke="#7fbc41" stroke-width="1"/>
	</g>
	<text x="39" y="26.75" fill="#000000" font-family="Verdana" font-size="12">USER</text>
	<text x="14" y="51.8" fill="#000000" font-family="Verdana" font-size="12">id_user</text>
	<line x1="14" y1="54" x2="60" y2="54" stroke="#000000" stroke-width="1"/>
	<text x="14" y="68.8" fill="#000000" font-family="Verdana" font-size="12">username</text>
	<text x="14" y="85.8" fill="#000000" font-family="Verdana" font-size="12">email</text>
	<text x="14" y="102.8" fill="#000000" font-family="Verdana" font-size="12">password</text>
	<text x="14" y="119.8" fill="#000000" font-family="Verdana" font-size="12">creation_date</text>
	<text x="14" y="136.8" fill="#000000" font-family="Verdana" font-size="12">langue</text>
	<text x="14" y="153.8" fill="#000000" font-family="Verdana" font-size="12">avatar</text>
</g>

<!-- Entity TOURNAMENT -->
<g class="page_0_226c878e diagram_page" visibility="visible">
	<g>
		<rect x="267" y="17" width="100" height="25" fill="#b8e186" stroke="none" stroke-width="0" opacity="1"/>
		<rect x="267" y="42" width="100" height="111" fill="#e6f5d0" stroke="none" stroke-width="0" opacity="1"/>
		<rect x="267" y="17" width="100" height="136" fill="none" stroke="#7fbc41" stroke-width="2" opacity="1"/>
		<line x1="267" y1="42" x2="367" y2="42" stroke="#7fbc41" stroke-width="1"/>
	</g>
	<text x="274" y="34.75" fill="#000000" font-family="Verdana" font-size="12">TOURNAMENT</text>
	<text x="272" y="59.8" fill="#000000" font-family="Verdana" font-size="12">id_tournament</text>
	<line x1="272" y1="62" x2="362" y2="62" stroke="#000000" stroke-width="1"/>
	<text x="272" y="76.8" fill="#000000" font-family="Verdana" font-size="12">name</text>
	<text x="272" y="93.8" fill="#000000" font-family="Verdana" font-size="12">is_started</text>
	<text x="272" y="110.8" fill="#000000" font-family="Verdana" font-size="12">winner_id</text>
	<text x="272" y="127.8" fill="#000000" font-family="Verdana" font-size="12">start_date</text>
	<text x="272" y="144.8" fill="#000000" font-family="Verdana" font-size="12">end_date</text>
</g>

<!-- Entity GAME -->
<g class="page_0_226c878e diagram_page" visibility="visible">
	<g>
		<rect x="285" y="178" width="64" height="25" fill="#b8e186" stroke="none" stroke-width="0" opacity="1"/>
		<rect x="285" y="203" width="64" height="77" fill="#e6f5d0" stroke="none" stroke-width="0" opacity="1"/>
		<rect x="285" y="178" width="64" height="102" fill="none" stroke="#7fbc41" stroke-width="2" opacity="1"/>
		<line x1="285" y1="203" x2="349" y2="203" stroke="#7fbc41" stroke-width="1"/>
	</g>
	<text x="299" y="195.75" fill="#000000" font-family="Verdana" font-size="12">GAME</text>
	<text x="290" y="220.8" fill="#000000" font-family="Verdana" font-size="12">id_game</text>
	<line x1="290" y1="223" x2="343" y2="223" stroke="#000000" stroke-width="1"/>
	<text x="290" y="237.8" fill="#000000" font-family="Verdana" font-size="12">date</text>
	<text x="290" y="254.8" fill="#000000" font-family="Verdana" font-size="12">score</text>
	<text x="290" y="271.8" fill="#000000" font-family="Verdana" font-size="12">status</text>
</g>

<!-- Notes -->
<script type="text/ecmascript">
<![CDATA[
	function show_226c878e(evt, text) {
		var pos = (evt.target.getAttribute("y") < 244) ? "bottom" : "top";
		var note = document.getElementById(pos + "_note_226c878e");
		note.textContent = text;
		note.setAttributeNS(null, "visibility", "visible");
		document.getElementById(pos + "_overlay_226c878e").setAttributeNS(null, "visibility", "visible");
	}
	function hide_226c878e(evt) {
		document.getElementById("top_note_226c878e").setAttributeNS(null, "visibility", "hidden");
		document.getElementById("top_overlay_226c878e").setAttributeNS(null, "visibility", "hidden");
		document.getElementById("bottom_note_226c878e").setAttributeNS(null, "visibility", "hidden");
		document.getElementById("bottom_overlay_226c878e").setAttributeNS(null, "visibility", "hidden");
	}
]]>
</script>
<rect id="top_overlay_226c878e" x="0" y="0" width="100%" height="40" fill="#c51b7d" stroke-width="0" opacity="0.9" visibility="hidden"/>
<text id="top_note_226c878e" text-anchor="middle" x="247" y="24" fill="#f7f7f7" font-family="Verdana" font-size="14" visibility="hidden"></text>
<rect id="bottom_overlay_226c878e" x="0" y="249" width="100%" height="40" fill="#c51b7d" stroke-width="0" opacity="0.9" visibility="hidden"/>
<text id="bottom_note_226c878e" text-anchor="middle" x="247" y="273" fill="#f7f7f7" font-family="Verdana" font-size="14" visibility="hidden"></text>
</svg>